# xmcd CD database file
#
# Track frame offsets:
#	182
#	21812
#	53047
#	78417
#	108017
#	136915
#	163302
#	195385
#	219335
#	234255
#
# Disc length: 3336 seconds
#
# Revision: 0
# Processed by: cddbd v1.5.2PL0 Copyright (c) Steve Scherf et al.
# Submitted via: CDex 1.51
#
DISCID=760d060a
DTITLE=Christophe Marguet Quartet - Les Correspondances
DYEAR=1999
DGENRE=Jazz
TTITLE0=Splash !
TTITLE1=Décrochage
TTITLE2=Spirale
TTITLE3=Eclipse
TTITLE4=Parallel Ways
TTITLE5=Funambule
TTITLE6=Underground
TTITLE7=Frôlement
TTITLE8=Lost
TTITLE9=Les Pirogues
EXTD=YEAR: 1999
EXTT0=
EXTT1=
EXTT2=
EXTT3=
EXTT4=
EXTT5=
EXTT6=
EXTT7=
EXTT8=
EXTT9=
PLAYORDER=
